<?xml version="1.0" standalone="yes"?>
<svg xmlns="http://www.w3.org/2000/svg" width="815" height="721">
<path style="fill:#207a4a; stroke:none;" d="M363 8.43903C348.797 10.6528 336.368 18.4399 322 19.8303C303.268 21.643 282.199 16.195 264 21.5695C249.534 25.8416 244.654 38.8122 232.576 46.0224C224.448 50.874 214.372 49.4362 206.09 54.1027C199.446 57.8456 194.284 64.6301 188.985 70.0038C178.569 80.5685 166.265 91.5446 158.101 104.001C147.908 119.552 156.446 138.341 147.446 154.015C139.784 167.358 122.851 173.057 115.493 187C110.893 195.717 111 204.438 111 214C111 221.729 109.909 230.415 111.518 238C114.347 251.34 122.842 262.158 130.573 273C136.097 280.747 140.505 288.684 148.87 293.804C161.293 301.407 178.118 299 192 299L284 299C368.813 299 453.286 298 538 298C559.933 298 582.09 297.08 604 298.039C622.598 298.854 643.596 301.725 662 297.996C678.981 294.556 694.815 282.158 699.699 265C701.88 257.337 701 248.879 701 241C701 233.574 701.332 226.265 699.525 219C697.039 209.009 690.869 201.502 687.785 192C684.24 181.071 685.695 170.407 679.525 160C673.801 150.346 665.284 142.28 657.831 134C645.501 120.301 633.457 106.153 620.699 92.8712C614.131 86.0329 608.491 78.8353 600 74.3233C587.629 67.7495 572.51 73.8658 561.015 66.4406C550.352 59.5532 548.232 45.7412 536.999 39.0941C526.265 32.7419 514.047 37.5103 503 33.1736C493.832 29.5747 488.906 22.2897 481.482 16.4252C477.228 13.0642 472.096 10.8496 467 9.09338C457.099 5.68085 443.41 8 433 8L388 8C379.809 8 371.107 7.17542 363 8.43903M436 34C444.257 34 454.489 32.3329 462 36.4174C471.795 41.7438 477.417 52.0774 488 56.8295C493.04 59.0925 498.46 60.7159 504 60.9606C509.042 61.1833 515.144 59.9436 519.985 61.5641C525.124 63.2844 531.666 72.5622 531.878 78C532.084 83.2758 524.417 89.2562 521.286 92.9992C515.732 99.6365 510.344 106.414 504.728 113C500.642 117.793 495.75 122.441 492.709 128C488.772 135.198 490 144.089 490 152L490 198C490 207.963 491.439 219.186 489.671 229C488.764 234.031 485.116 237.426 483.228 242C479.827 250.236 483.453 261.589 492.015 265.142C500.239 268.555 511.785 265.029 515.821 256.999C517.62 253.421 517.356 247.934 516.87 244.039C516.072 237.63 509.591 234.153 508.34 227.961C507.068 221.66 508 214.41 508 208L508 168C508 159.832 506.061 148.714 508.995 141C512.444 131.93 521.777 124.424 527.804 117C532.438 111.292 537.056 105.485 541.95 100.001C543.898 97.8173 546.015 94.5391 549.039 93.8125C553.4 92.7649 560.441 95.3964 565 95.8303C571.067 96.4077 578.141 94.7088 583.911 96.9907C593.661 100.847 600.074 110.901 606.745 118.424C621.322 134.863 635.373 153.618 652 168C648.199 176.2 640.31 182.429 634.184 188.911C624.793 198.848 616.264 210.846 605.957 219.772C599.096 225.713 589.207 222.62 584.457 232.004C575.495 249.707 598.557 267.458 613.236 254.147C618.945 248.97 617.485 240.478 621.313 234.17C627.898 223.32 639.049 212.969 648 204C652.068 199.924 655.848 194.609 661 192C662.384 208.942 675.795 221.029 675.996 238C676.065 243.827 676.027 250.362 674.363 255.996C669.708 271.755 655.602 272 642 272L615 272C609.701 272 604.27 271.664 599 272.285C594.416 272.826 587.503 274.4 583.318 271.682C580.058 269.565 581 264.319 581 261L581 233C581 224.161 582.642 213.4 579.437 205C577.697 200.441 574.077 196.794 571.117 193C563.753 183.563 554.881 174.933 548.224 165C544.913 160.061 546.09 155.159 543.991 150.001C540.346 141.043 528.489 137.719 520.001 141.403C509.481 145.968 506.047 161.389 514.189 169.895C519.375 175.313 526.799 174.199 532.282 178.723C539.744 184.881 545.259 193.605 551.414 201C554.915 205.208 559.679 209.651 561.347 215C564.165 224.033 562 236.575 562 246L562 263C561.995 265.236 562.468 268.508 560.972 270.397C559.417 272.361 556.209 271.984 554 271.999C547.667 272.043 541.333 272 535 272L457 272C461.035 267.316 465.457 263.727 465.526 257C465.598 249.992 459.644 245.497 458.343 239C455.853 226.559 458 211.685 458 199C458 191.63 458.432 184.447 450.995 180.441C445.234 177.338 438.195 175.732 432 173.667C421.68 170.227 411.4 166.603 401 163.414C395.956 161.867 385.021 160.2 382.742 154.891C381.002 150.837 382.149 145.309 381.961 141C381.493 130.311 378.796 117.543 381.558 107C382.757 102.421 386.456 99.3056 388.146 95C391.101 87.4705 387.059 78.0321 379.996 74.4568C370.907 69.8552 358.937 75.1072 356.533 85C355.498 89.2601 355.782 94.1747 358.005 98C359.988 101.411 363.036 103.956 363.772 108C364.653 112.845 363.824 118.094 364.039 123C364.348 130.046 365.506 136.895 364.83 144C364.057 152.121 361.974 162.285 368.225 168.867C372.517 173.388 379.317 174.446 385 176.333C396.68 180.212 408.234 184.497 420 188.117C425.779 189.894 436.238 191.613 439.543 197.213C442.109 201.561 441 208.161 441 213C441 220.725 442.608 230.525 440.566 238C439.378 242.352 435.422 245.056 433.457 249C428.902 258.141 434.693 265.212 440 272L396 272C392.223 272 382.803 273.71 380.179 270.397C378.175 267.866 378.999 263.001 379 260C379.001 255.921 378.989 251.935 380.221 248C383.427 237.754 391.667 228.995 381.891 219.105C380.453 217.65 378.813 216.395 377 215.442C374.305 214.026 371.041 213.205 368 213.13C355.342 212.819 347.883 226.745 351.564 237.996C352.853 241.937 356.47 244.411 358.316 248.039C360.017 251.384 359.673 254.42 359.286 258C358.78 262.669 361.516 269.658 355.891 271.852C350.782 273.845 344.365 273 339 273C326.619 273 314.389 272 302 272L173 272C177.179 263.049 182.592 254.71 187.218 246C193.952 233.324 200.091 219.993 208 208C213.457 210.549 218.257 215.097 223 218.793C230.299 224.48 237.676 229.993 245 235.65C251.007 240.291 258.089 245.901 265.942 241.427C273.806 236.948 271 222.585 271 215L271 165C271 156.523 270.047 147.393 271.301 139C272.944 127.997 284.793 121.413 278.312 109.039C268.287 89.9006 236.996 102.878 244.995 124C246.46 127.869 249.576 130.937 250.581 135C252.831 144.095 250.999 155.646 251 165C251.001 181.29 252 197.642 252 214C241.682 209.408 231.93 200.256 223.17 193.155C218.233 189.153 212.642 183.648 206 183.11C196.254 182.32 192.545 192.913 188.691 200C177.961 219.736 166.554 239.149 156 259L154 259C147.948 247.675 138.722 239.132 136.465 226C135.761 221.907 136.781 218.078 136.961 214C137.189 208.824 137.064 204.528 140.108 200.039C149.478 186.224 167.176 180.207 174.045 164C179.108 152.052 174.86 139.165 177.681 127.001C179.003 121.299 182.919 117.344 186.59 112.999C192.858 105.581 199.227 97.8857 207 92C207 101.991 206.771 112.012 207.015 122C207.155 127.756 207.986 133.24 206.726 138.985C205.073 146.523 197.828 150.372 198.133 159C198.432 167.458 204.4 175.082 213 175.896C226.597 177.183 236.33 167.826 233.66 154C232.699 149.027 228.457 145.795 227.314 141C226.277 136.648 227 131.452 227 127L227 98C227 92.7148 224.953 81.9305 228.028 77.4329C229.95 74.6214 234.972 74.2801 238 73.4205C243.749 71.7888 249.109 69.2939 253.715 65.3912C261.924 58.4353 266.6 47.622 278 45.4676C287.524 43.6678 298.326 45 308 45C311.611 45 316.684 44.1505 319.697 46.6034C324.613 50.606 325.549 62.1499 327.152 68C328.439 72.6957 331.98 79.1476 329.972 83.9962C327.927 88.9337 322.651 93.1827 319.29 97.2847C313.777 104.013 307.919 110.48 302.155 116.999C299.2 120.342 296.224 124.594 292.545 127.181C287.918 130.435 281.756 129.215 277.329 133.394C271.321 139.065 270.172 150.083 274.728 156.985C280.321 165.461 292.84 167.695 300.96 161.501C309.336 155.111 305.608 145.627 310.943 138C319.138 126.283 330.047 115.934 339.285 105.003C343.178 100.397 348.511 95.9485 350.348 90C354.984 74.9866 343.187 57.9145 342 43C352.043 40.2534 361.379 34.5215 372 34.0394C382.291 33.5722 392.698 34 403 34C406.221 34 411.685 33.0315 414.397 35.179C418.04 38.0645 416 49.7739 416 54C416 71.9988 417.845 91.1005 415.892 108.985C414.745 119.49 403.072 126.541 410.769 137.996C420.001 151.736 441.964 148.334 443.826 131C444.87 121.289 436.779 116.771 436.058 108C434.059 83.6906 436 58.4 436 34M308 188C330.53 193.212 353.056 201.687 375 209C382.493 211.497 394.875 212.766 400.566 218.558C407.464 225.577 400.516 235.611 397.074 242C393.815 248.05 394.236 256.526 398.558 261.945C400.04 263.803 401.822 265.205 404.004 266.146C406.435 267.194 409.353 267.819 412 267.819C424.177 267.819 431.909 256.549 428.348 245C426.688 239.616 422.336 235.734 421.329 230C420.046 222.702 423.505 212.515 419.106 206.105C414.159 198.895 399.902 197.043 392 194.706C369.228 187.972 346.542 180.632 324 173.167C316.116 170.557 302.237 163.604 294.109 168.179C288.683 171.233 289.912 179.693 289.285 185C287.845 197.212 290.388 209.885 287.606 222C286.426 227.135 282.254 230.923 280.789 236C279.227 241.413 280.106 247.423 283.638 251.895C289.175 258.905 303.639 259.208 309.786 252.867C314.183 248.331 314.981 240.996 313.606 235C312.403 229.758 307.807 226.251 306.533 221C304.136 211.12 306.74 197.974 308 188M160 308.598C144.983 312.203 137.805 323.002 129.656 335C122.346 345.762 113.894 355.842 111.376 369C109.92 376.608 111 385.269 111 393C111 401.63 110.301 410.05 114.276 418C122.209 433.866 141.91 440.061 149.095 456C156.525 472.483 147.541 490.78 160.21 506C166.054 513.021 172.714 519.241 178.83 526C187.322 535.385 195.96 546.401 207 552.906C215.215 557.746 224.84 556.129 233 561.184C243.883 567.927 248.869 581.001 262 584.61C269.461 586.661 277.337 586 285 586C300.486 586 315.799 585.16 331 588.454C340.519 590.516 349.396 595.433 359 597.482C378.981 601.745 401.657 599 422 599C436.505 599 452.846 601.081 467 597.485C481.635 593.767 488.481 579.192 502 573.67C514.175 568.696 527.317 574.347 538.985 565.896C548.738 558.832 550.598 545.664 561.001 539.483C567.054 535.886 574.265 537.15 581 536.985C587.734 536.82 594.085 535.363 600 532.103C613.528 524.646 623.637 509.747 633.884 498.424C643.169 488.165 652.3 477.762 661.665 467.576C668.377 460.275 676.14 452.967 680.623 444C685.17 434.906 684.483 425.521 686.681 416C688.94 406.209 696.313 397.845 699.25 388C701.287 381.174 701 373.067 701 366C701 356.273 701.302 346.51 697.594 337.285C693.63 327.421 684.983 319.48 676.286 313.789C663.873 305.665 647.05 308 633 308L543 308L282 308L200 308C187.448 308 172.22 305.665 160 308.598M280 334C273.027 346.525 264.423 358.007 257.816 370.804C250.016 385.909 244.568 402.315 238.145 418C234.113 427.847 231.002 438.106 227.05 448C225.285 452.418 224.081 457.315 220.775 460.895C216.827 465.171 210.199 467.442 204.985 469.858C196.171 473.942 187.147 478.815 178 482C175.253 467.259 178.945 450.093 170.455 437.015C160.756 422.074 140.417 415.807 136.289 397C132.532 379.88 141.211 364.305 151.232 351C156.75 343.675 163.071 337.008 172.285 334.471C182.541 331.647 196.372 334 207 334L280 334M324 334C317.381 345.617 309.163 355.898 303.17 368C295.338 383.814 290.714 401.002 283.295 417C277.245 430.045 272.182 441.394 257 445C260.362 437.207 265.848 430.53 269.742 423C276.743 409.46 281.907 394.578 286.28 380C289.376 369.678 292.065 359.214 295.507 349C296.936 344.759 298.663 338.799 301.966 335.603C306.038 331.664 318.628 334 324 334M366 334C363.268 339.965 358.283 344.783 354.34 350C348.77 357.368 343.612 365.896 339.184 374C333.227 384.903 329.667 397.006 323.766 408C320.177 414.688 316.346 421.152 309 424C311.712 418.071 316.127 412.827 319.22 407C325.686 394.818 331.157 381.104 335.338 367.961C337.581 360.908 340.185 354.022 342.51 347C343.758 343.232 345.167 338.2 348.39 335.603C352.444 332.338 361.079 334 366 334M405 334C399.614 341.255 392.872 347.402 387.838 355C378.743 368.728 371.973 383.719 363.872 398C358.27 407.875 356.013 417.884 343 418C347.864 409.264 354.384 401.563 359.55 393C365.79 382.657 370.523 371.844 375.742 361C378.596 355.07 380.8 348.903 383.753 343C385.027 340.453 386.207 336.724 388.637 335.028C392.383 332.413 400.596 334 405 334M447 334C439.558 340.685 431.99 346.265 425.641 354.17C416.705 365.296 410.385 378.798 403.078 391C397.818 399.783 393.568 411.863 382 412C385.191 406.4 389.434 401.505 392.796 396C400.133 383.987 406.496 371.602 412.752 359C415.513 353.439 417.58 347.596 420.255 342C421.335 339.742 422.342 336.506 424.498 335.028C429.327 331.718 441.275 334 447 334M666 339C662.251 341.523 658.026 343.951 654 346C650.558 335.214 638.883 350.779 636 355L637 346C626.524 346.48 621.202 352.54 616 361C615.623 356.474 617.957 351.758 618 347C598.2 348.781 596.739 373.16 584 384C588.408 372.355 599.856 362.934 600 350C574.059 351.185 574.49 383.887 557 397C563.27 379.875 580.829 365.134 581 346C562.561 347.85 553.575 370.688 546.245 385C542.451 392.407 538.077 399.871 530 403C538.844 385.146 555.945 368.381 559 348C550.185 348.207 543.937 353.482 538.004 359.615C524.509 373.563 519.998 395.723 504 407C506.684 391.413 518.622 377.361 526.424 364C530.393 357.202 534.81 351.101 535 343C528.404 343.442 523.891 347.45 519.001 351.59C506.793 361.927 500.422 376.157 493.216 390C488.71 398.655 483.708 408.896 473 410C477.204 402.621 482.963 396.216 487.467 389C493.28 379.686 498.382 369.838 503.244 360C506.881 352.64 511.803 345.379 512 337C504.277 337.518 498.476 343.167 492.985 348.167C484.369 356.013 477.251 365.505 472.109 376C465.902 388.667 460.87 403.899 447 410C449.395 402.486 455.477 395.71 459.634 389C466.621 377.724 472.887 365.811 478.916 354C482.03 347.898 486.291 341.925 487 335C478.673 335.2 471.873 340.451 466 346.04C453.285 358.141 447.552 373.013 439.269 388C434.21 397.155 428.839 406.666 418 409C419.885 402.055 426.37 396.157 430.078 390C436.754 378.914 442.387 367.378 448.54 356C452.256 349.129 457.254 341.631 459 334L597 334C619.059 334 645.455 329.877 666 339M651 352L650 353L651 352M647 359C646.455 360.635 646.635 360.455 645 361C645.545 359.365 645.365 359.545 647 359M631 363L630 364L631 363M628 368L627 369L628 368M674 379C668.342 378.152 663.584 374.995 658 374C664.011 369.893 673.724 370.692 674 379M607 376C605.617 378.637 604.348 380.17 602 382C603.455 379.514 604.782 377.827 607 376M670 389C664.499 409.163 655.839 429.834 643.666 446.91C635.729 458.044 625.277 467.81 616.166 478C607.116 488.123 597.229 502.426 585 508.762C571.228 515.897 554.603 507.796 541.17 516.225C531.12 522.53 533.685 535.935 523.995 542.272C513.324 549.252 497.769 545.139 486 549.993C474.815 554.607 469.948 567.193 458 571.176C447.029 574.833 434.394 574 423 574C400.174 574 378.378 573.099 356 568.36C346.86 566.425 334.67 566.044 326.329 561.772C322.709 559.919 320.414 555.383 318.464 552C312.612 541.847 310.034 529.719 305.291 519C298.715 504.137 289.413 490.193 278.714 478C273.764 472.359 267.341 468.111 263 462C270.265 458.885 276.971 453.822 285 453C287.822 473.938 297.823 498.101 310.378 515C314.544 520.607 319.305 526.929 325.093 530.946C332.275 535.931 339.466 539.721 348 541.576C350.602 542.141 355.163 543.647 356.878 540.668C358.237 538.308 356.535 535.59 355.359 533.576C352.243 528.24 349.52 522.73 347.201 517C340.173 499.638 333.844 480.987 324 465.015C319.062 457.002 309.978 451.29 306 443C309.45 441.594 313.146 439.497 316.996 440.449C325.903 442.651 330.9 459.48 334.127 467C344.227 490.532 356.235 525.362 387 526C386.62 517.294 382.884 509.18 380.167 501C374.804 484.858 369.329 469.014 361.208 454C357.398 446.954 350.163 440.677 348 433C350.586 432.22 354.165 430.259 356.896 430.863C359.724 431.489 361.268 434.781 362.68 437.001C366.316 442.718 369.18 448.785 371.85 455C378.486 470.452 384.023 486.761 396.015 498.999C402.209 505.32 408.87 510.577 418 511C417.975 502.368 414.369 495.076 411.667 487C406.629 471.945 401.332 456.792 395.571 442C394.345 438.854 392.896 435.827 390.522 433.375C388.851 431.65 385.201 429.875 385.207 427.105C385.214 423.39 391.693 423.711 393.945 424.603C400.405 427.164 402.035 441.047 403.999 447C410.556 466.865 417.883 498.645 444 500C443.804 490.806 439.649 481.682 436.836 473C433.173 461.696 430.687 450.153 426.467 439C424.207 433.029 420.242 427.923 418 422C429.176 419.609 433.483 431.021 435.336 440C438.256 454.157 440.19 468.72 448.516 480.985C452.349 486.631 456.956 492.059 464 493C464 477.094 462.45 462.375 458.091 447C455.749 438.739 450.872 430.521 450 422C460.133 424.518 461.186 434.249 463.373 443C466.533 455.637 470.266 468.339 478.508 478.711C482.203 483.36 487.001 488.078 493 489C493 479.012 493.448 468.794 491.101 459C488.031 446.189 481.432 435.178 477 423C488.062 422.028 490.775 434.622 493.823 443C499.519 458.655 508.485 479.785 528 480C527.69 473.942 525.185 468.645 523.18 463C519.843 453.603 516.879 444.077 512.691 435C510.445 430.133 507.065 425.911 505 421C517.354 421.365 520.41 431.109 524.452 441C530.105 454.834 536.294 467.952 553 468C552.436 455.067 547.106 438.855 540.034 428C537.432 424.007 533.741 420.892 531 417C542.408 414.807 546.83 426.583 551.025 435C557.319 447.624 564.968 457.866 580 458C579.662 451.488 576.335 446.639 573.359 441.015C568.315 431.481 561.918 421.791 560 411C573.999 413.825 575.48 432.319 585.289 440.501C590.055 444.475 596.196 444 602 444C601.413 433.262 590.668 424.281 585.781 415C584.632 412.818 580.324 406.198 583.618 404.161C587.729 401.619 592.936 410.609 594.793 413C602.801 423.309 608.576 432.388 623 430C618.922 416.916 604.491 409.559 603 395C615.036 395.391 620.836 409.348 630 415.606C634.49 418.672 639.817 418 645 418C644.545 409.684 637.652 404.087 631.576 399.039C629.062 396.952 623.579 394.086 624.037 390.148C624.55 385.734 630.03 388.644 632 389.85C638.48 393.819 645.433 401.262 653 402.725C655.95 403.296 663.364 403.526 663.364 398.985C663.364 395.849 659.202 393.816 656.999 392.333C651.646 388.731 643.919 385.526 642 379C652.159 380.322 659.96 387.619 670 389M301 560C297.395 562.463 293.25 562.001 289 562C282.5 561.998 275.754 561.393 270.004 558.009C262.854 553.801 258.307 546.323 251.985 541.096C243.181 533.816 231.794 532.361 222 526.902C208.652 519.462 196.179 507.1 187 495C197.491 489.471 209.429 487.358 220 481.886C223.458 480.096 230.727 475.7 234.725 476.813C237.705 477.643 239.032 482.549 240.248 485C244.222 493.015 248.223 501.009 252.248 509C262.74 529.835 279.009 550.857 301 560M188 688C177.508 689.372 169.483 700.036 158 696.232C134.577 688.474 135.213 654.62 155 643.367C167.614 636.194 176.476 647.357 188 650C188 645.678 189.441 638.158 186.972 634.418C185.386 632.016 181.516 630.676 179 629.514C168.927 624.862 153.462 625.771 144 631.479C128.869 640.607 124.974 655.574 125 672C125.024 686.919 132.235 701.219 146 708.005C155.219 712.549 167.447 711.871 177 708.783C180.139 707.769 184.994 706.196 186.972 703.363C189.467 699.79 188 692.19 188 688M260 628L260 687C260 692.23 257.796 704.126 261.179 708.397C263.618 711.477 271.496 710 275 710L275 676C279.13 676 284.098 675.276 288 676.858C296.675 680.376 299.508 690.99 302.305 699C303.37 702.05 303.85 706.946 306.652 708.972C309.966 711.369 317.087 710 321 710C320.349 695.797 311.855 680.297 304 669C319.988 665.243 325.519 641.443 310.985 632.144C304.396 627.93 296.498 628 289 628L260 628M328 628L328 710L381 710L381 696L342 696L342 628L328 628M423 653C428.77 651.68 433.418 647.849 439 645.975C445.185 643.897 463.939 644.588 459.333 655.961C457.664 660.082 453.401 663.051 449.996 665.626C442.61 671.21 433.904 675.588 427.44 682.289C419.631 690.385 420 699.493 420 710L477 710L477 696L435 696C445.892 684.076 466.137 677.914 473.431 663C474.627 660.555 475.325 657.686 475.699 655C478.457 635.207 457.802 628.648 442 630.87C436.649 631.622 427.418 632.783 424.028 637.637C421.533 641.209 423 648.811 423 653M512 630.468C476.183 637.179 472.521 700.13 508 710.211C512.802 711.576 519.092 711.479 524 710.675C567.191 703.602 558.02 621.845 512 630.468M563 653C568.64 651.617 573.527 648.014 579 646.04C584.942 643.898 590.733 643.426 595.955 647.558C599.059 650.014 600.991 653.159 598.961 656.96C596.664 661.261 591.848 664.247 587.999 667C579.486 673.089 568.488 678.723 563.005 688.001C559.173 694.484 560 702.782 560 710L617 710L617 696L575 696C585.975 683.596 606.822 677.732 613.786 662C614.884 659.519 615.565 656.697 615.823 654C617.683 634.532 596.562 628.293 581 630.921C576.023 631.761 567.115 633.094 564.028 637.613C561.548 641.243 563 648.768 563 653M633 653C639.262 651.464 644.928 647.568 651 645.325C657.635 642.874 674.264 647.132 668.947 656.996C666.609 661.332 661.894 664.222 658 667C649.674 672.94 639.131 678.106 633.563 687.004C629.281 693.848 630 702.274 630 710L687 710L687 696L645 696C656.108 683.838 676.884 677.591 683.786 662C684.884 659.519 685.565 656.697 685.823 654C687.718 634.162 666.499 628.802 651 631.001C645.935 631.719 637.213 633.077 634.028 637.637C631.533 641.209 633 648.811 633 653M275 662L275 642C282.338 642 294.92 639.751 300.682 645.43C304.962 649.648 302.608 656.085 297.981 658.772C291.294 662.654 282.428 662 275 662M517 644.347C524.723 643.582 530.854 650.49 533.525 657.001C538.757 669.753 536.466 694.903 519 696.863C511.155 697.744 504.215 690.911 501.563 684C496.52 670.854 499.195 646.111 517 644.347M221 651.464C215.89 651.937 210.606 652.828 206.285 655.764C190.772 666.303 187.859 691.399 202.325 704.239C209.529 710.634 219.735 711.972 229 710.815C248.976 708.319 257.021 683.412 249.084 667C244.036 656.561 232.489 650.403 221 651.464M220 665.434C238.125 660.93 243.269 693.87 225 697.591C206.671 701.324 202.72 669.727 220 665.434z"/>
</svg>
