<?xml version="1.0" encoding="utf-8"?>
<!-- Generator: Adobe Illustrator 16.0.0, SVG Export Plug-In . SVG Version: 6.00 Build 0)  -->
<!DOCTYPE svg PUBLIC "-//W3C//DTD SVG 1.0//EN" "http://www.w3.org/TR/2001/REC-SVG-20010904/DTD/svg10.dtd">
<svg version="1.0" id="Layer_1" xmlns="http://www.w3.org/2000/svg" xmlns:xlink="http://www.w3.org/1999/xlink" x="0px" y="0px"
	   viewBox="0 0 1000 1000" enable-background="new 0 0 1000 1000" xml:space="preserve">
<g>
	<path d="M42.844,665.828h-6.278l-0.9-52.027h7.354c5.379,29.594,20.461,45.025,43.405,45.025c19.561,0,30.317-9.875,30.317-25.664
		c0-7.51-2.876-13.436-7.9-17.016c-6.26-4.498-16.313-6.299-29.4-9.877c-28.693-7.705-42.523-14.887-42.523-38.574
		c0-22.236,14.886-36.576,38.22-36.576c13.086,0,24.569,4.305,33.526,12.559l7.003-10.76h6.629l1.977,46.633h-7.001
		c-6.808-26.721-20.969-40.178-42.134-40.178c-15.803,0-24.763,7.881-24.763,21.693c0,17.234,13.457,19.188,37.302,25.115
		c12.929,3.227,23.686,5.928,31.94,13.455c6.984,6.457,10.934,16.137,10.934,27.621c0,24.939-15.783,39.625-44.479,39.625
		c-13.985,0-27.09-5.025-35.697-13.436L42.844,665.828z"/>
	<path d="M132.33,588.506v-7.176c14.711-1.057,23.141-13.809,24.041-37.125h7.53v36.42h25.838v7.881h-26.737v51.834
		c0,10.232,1.975,15.24,10.581,15.24c9.877,0,14.357-7.885,14.885-24.373h6.65v2.328c0,21.715-9.857,33.174-27.97,33.174
		c-16.156,0-20.46-7.883-20.46-24.742v-53.461H132.33z"/>
	<path d="M240.302,577.75c23.687,0,40.196,17.762,40.196,44.482c0,26.719-16.685,44.301-40.196,44.301
		c-23.491,0-40.351-17.582-40.351-44.301C199.951,595.512,216.636,577.75,240.302,577.75z M240.126,659.178
		c15.785,0,22.063-11.658,22.063-36.945c0-25.273-6.278-37.129-21.888-37.129c-15.589,0-21.867,11.855-21.867,37.129
		C218.435,647.346,224.89,659.178,240.126,659.178z"/>
	<path d="M284.782,656.129l7.706-0.355c5.026-0.193,5.926-1.443,5.926-6.629v-54.531c0-5.91-2.151-7.182-9.857-7.182
		c-1.624,0-3.403,0.197-5.379,0.197v-7.004l30.67-2.15v17.211c8.079-11.83,17.037-17.211,29.418-17.211
		c17.037,0,27.072,10.229,27.072,28.691v41.979c0,5.186,1.074,6.436,5.926,6.629l7.708,0.355v7.529h-43.404v-7.529l7.706-0.355
		c4.674-0.193,5.928-1.443,5.928-6.629v-42.699c0-10.76-5.928-16.861-16.49-16.861c-15.081,0-22.965,10.053-22.965,29.945v29.615
		c0,5.01,0.705,6.436,5.907,6.629l7.532,0.355v7.529h-43.403V656.129z"/>
	<path d="M392.752,595.861c-1.252-2.678-2.698-4.828-4.127-5.729c-2.149-1.43-5.378-1.977-9.682-1.977v-7.531h41.799v7.531h-4.498
		c-5.202,0-7.179,0.547-7.179,3.773c0,1.059,0.726,2.859,1.801,5.559l19.012,43.752l17.937-43.029
		c0.353-1.076,0.899-2.172,0.899-3.953c0-5.023-3.58-5.928-12.557-6.102v-7.531h34.62v7.531c-6.648,0-10.583,3.053-13.457,9.682
		l-30.298,70.496c-9.35,21.691-19.209,32.641-34.817,32.641c-10.582,0-16.488-5.375-16.488-13.824
		c0-5.908,4.478-10.582,10.759-10.582c5.729,0,9.327,3.422,9.327,8.801c0,3.053-1.427,4.482-1.427,5.205
		c0,1.25,1.057,1.973,3.228,1.973c5.732,0,14.689-9.504,22.416-28.166l1.252-2.855L392.752,595.861z"/>
	<path d="M503.051,655.25h9.33c7.18,0,9.507-1.629,9.507-8.629v-95.414c0-7.002-2.327-8.605-9.507-8.605h-9.33v-8.432h67.795
		c25.47,0,38.749,11.129,38.749,31.57c0,15.416-10.055,25.643-30.14,29.945c24.76,3.229,36.773,14.184,36.773,33.174
		c0,21.713-16.864,34.799-47.534,34.799h-65.644V655.25z M541.076,592.637h14.357c23.121,0,33.348-5.379,33.348-25.291
		c0-18.115-8.056-25.096-27.44-25.096h-11.305c-7.355,0-8.96,1.775-8.96,7.881V592.637z M541.076,646.799
		c0,6.648,1.78,8.451,9.86,8.451h12.731c21.36,0,30.692-7.555,30.692-26.916c0-20.459-11.309-27.797-37.146-27.797h-16.138V646.799z
		"/>
	<path d="M657.826,655.773l10.938,0.355v7.529h-47.16v-7.529l8.433-0.355c5.006-0.193,5.907-1.604,5.907-6.629v-54.531
		c0-6.283-2.328-6.984-10.759-6.984h-5.379v-7.004l31.218-2.15v25.289c5.555-17.057,14.709-25.836,26.172-25.836
		c9.7,0,16.33,6.65,16.33,15.256c0,6.631-4.499,11.109-10.404,11.109c-6.63,0-10.583-4.107-10.583-10.23
		c0-3.227,1.253-6.104,3.581-7.688h-1.076c-11.306,0-23.119,17.021-23.119,43.578v19.191
		C651.925,654.17,652.805,655.58,657.826,655.773z"/>
	<path d="M736.032,577.75c23.684,0,40.193,17.762,40.193,44.482c0,26.719-16.684,44.301-40.193,44.301
		c-23.493,0-40.354-17.582-40.354-44.301C695.679,595.512,712.364,577.75,736.032,577.75z M735.854,659.178
		c15.787,0,22.063-11.658,22.063-36.945c0-25.273-6.276-37.129-21.886-37.129c-15.59,0-21.867,11.855-21.867,37.129
		C714.165,647.346,720.617,659.178,735.854,659.178z"/>
	<path d="M824.618,577.75c23.688,0,40.194,17.762,40.194,44.482c0,26.719-16.682,44.301-40.194,44.301
		c-23.494,0-40.354-17.582-40.354-44.301C784.265,595.512,800.952,577.75,824.618,577.75z M824.443,659.178
		c15.78,0,22.063-11.658,22.063-36.945c0-25.273-6.283-37.129-21.889-37.129c-15.588,0-21.867,11.855-21.867,37.129
		C802.751,647.346,809.206,659.178,824.443,659.178z"/>
	<path d="M865.147,656.129l8.081-0.355c5.022-0.193,6.102-1.619,6.102-6.629V547.078c0-5.926-2.154-7.178-9.86-7.178
		c-1.448,0-3.246,0.195-5.223,0.195v-7l31.415-2.154v88.785l27.618-25.291c1.251-1.252,2.151-3.053,2.151-3.953
		c0-2.326-2.877-3.051-9.156-3.051h-5.729v-6.807h45.907v6.807h-1.075c-11.66,0-18.662,5.557-27.815,14.006l-9.133,8.432
		l28.163,37.477c4.482,6.102,9.51,8.428,17.742,8.783v7.529h-46.259v-7.529l5.379-0.355c4.107-0.193,6.277-0.523,6.277-2.697
		c0-1.428-0.723-2.328-1.62-3.58l-21.535-29.066l-10.915,9.684v19.031c0,5.186,1.072,6.436,6.08,6.629l7.905,0.355v7.529h-44.5
		V656.129z"/>
	<path fill="#9A0000" d="M160.223,720.928v8.432h-9.31c-7.179,0-9.506,1.801-9.506,8.627v72.449
		c0,22.787,11.285,33.174,35.854,33.174c16.155,0,26.914-5.73,31.941-16.664c2.327-5.029,2.698-13.281,2.698-24.938v-56.51
		c0-10.934-2.348-16.139-12.927-16.139h-7.884v-8.432H240.4v8.432h-6.632c-10.229,0-13.086,4.676-13.086,16.139v57.211
		c0,35.17-12.929,50.777-49.681,50.777c-32.472,0-48.979-14.531-48.979-43.225v-72.275c0-6.826-1.976-8.627-9.507-8.627H102.11
		v-8.432H160.223z"/>
	<path fill="#9A0000" d="M231.794,842.908l7.706-0.355c5.027-0.193,5.927-1.445,5.927-6.627v-54.535c0-5.908-2.151-7.18-9.857-7.18
		c-1.624,0-3.405,0.195-5.38,0.195v-7.002l30.671-2.152v17.213c8.077-11.832,17.035-17.213,29.417-17.213
		c17.038,0,27.071,10.23,27.071,28.695v41.979c0,5.182,1.076,6.434,5.927,6.627l7.706,0.355v7.529h-43.404v-7.529l7.708-0.355
		c4.675-0.193,5.927-1.445,5.927-6.627v-42.703c0-10.758-5.927-16.861-16.488-16.861c-15.081,0-22.964,10.057-22.964,29.947v29.617
		c0,5.006,0.704,6.434,5.907,6.627l7.53,0.355v7.529h-43.403V842.908z"/>
	<path fill="#9A0000" d="M334.19,842.908l8.625-0.371c5.008-0.178,6.085-1.605,6.085-6.635v-54.512c0-5.93-2.153-7.18-9.859-7.18
		c-1.428,0-3.227,0.178-5.203,0.178v-7.006l31.395-2.152v70.672c0,5.205,1.074,6.457,6.102,6.635l7.884,0.371v7.529H334.19V842.908z
		 M367.384,731.336c0,5.926-4.852,10.584-10.759,10.584c-5.926,0-10.581-5.008-10.581-10.584c0-5.729,4.83-10.584,10.581-10.584
		C362.357,720.752,367.384,725.428,367.384,731.336z"/>
	<path fill="#9A0000" d="M419.922,853.311l-31.022-71.219c-2.329-5.555-4.85-7.178-11.658-7.178h-1.25v-7.51h40.174v7.51
		c-7.55,0.197-10.757,0.744-10.757,4.129c0,1.076,0.703,2.873,1.975,5.75l19.365,44.658l15.962-41.254
		c1.075-2.875,1.799-5.201,1.799-7.16c0-3.793-3.423-6.123-9.878-6.123h-1.975v-7.51h34.814v7.51
		c-8.075,0.197-11.853,4.129-15.255,12.557l-26.72,65.84H419.922z"/>
	<path fill="#9A0000" d="M483.766,813.838c0,19.016,9.702,29.945,23.862,29.945c12.383,0,21.888-6.432,28.52-19.361l6.28,3.578
		c-7.883,16.859-20.618,25.311-37.85,25.311c-22.593,0-38.924-17.408-38.924-44.301c0-26.721,16.137-44.479,38.924-44.479
		c23.14,0,37.85,15.959,37.85,42.502v3.229H483.94C483.94,811.512,483.766,812.584,483.766,813.838z M517.486,802.555
		c4.675,0,6.278-1.096,6.278-5.732c0-16.332-6.804-25.133-19.011-25.133c-13.634,0-20.265,10.227-20.615,30.865H517.486z"/>
	<path fill="#9A0000" d="M582.778,842.537l10.935,0.35v7.531h-47.158v-7.531l8.431-0.35c5.007-0.197,5.907-1.605,5.907-6.635
		v-54.533c0-6.279-2.33-6.98-10.759-6.98h-5.379v-7.006l31.218-2.152v25.297c5.555-17.061,14.709-25.842,26.172-25.842
		c9.7,0,16.33,6.65,16.33,15.258c0,6.631-4.499,11.107-10.404,11.107c-6.63,0-10.583-4.105-10.583-10.229
		c0-3.229,1.254-6.105,3.581-7.688h-1.076c-11.305,0-23.118,17.02-23.118,43.582v19.186
		C576.874,840.932,577.753,842.34,582.778,842.537z"/>
	<path fill="#9A0000" d="M630.135,817.613c4.476,18.465,15.062,28.168,29.398,28.168c11.481,0,18.834-5.928,18.834-14.885
		c0-9.527-7.156-11.502-18.834-13.83c-21.692-4.477-34.777-8.234-34.777-28.145c0-14.887,10.032-24.215,24.916-24.215
		c8.61,0,15.24,1.604,22.594,6.982l5.203-6.283h5.555v29.793h-5.555c-5.007-15.609-13.985-23.51-26.721-23.51
		c-10.034,0-16.311,5.57-16.311,12.379c0,10.584,7.707,11.834,22.412,14.709c21.167,4.129,32.1,8.98,32.1,26.896
		c0,17.234-11.305,27.99-29.945,27.99c-8.432,0-15.962-2.699-23.49-8.783l-5.927,8.236h-5.929v-35.504H630.135z"/>
	<path fill="#9A0000" d="M694.858,842.908l8.624-0.371c5.008-0.178,6.084-1.605,6.084-6.635v-54.512c0-5.93-2.152-7.18-9.858-7.18
		c-1.425,0-3.227,0.178-5.203,0.178v-7.006l31.396-2.152v70.672c0,5.205,1.075,6.457,6.102,6.635l7.881,0.371v7.529h-45.025V842.908
		z M728.053,731.336c0,5.926-4.851,10.584-10.759,10.584c-5.926,0-10.58-5.008-10.58-10.584c0-5.729,4.829-10.584,10.58-10.584
		C723.023,720.752,728.053,725.428,728.053,731.336z"/>
	<path fill="#9A0000" d="M738.086,775.287v-7.178c14.708-1.055,23.141-13.811,24.037-37.123h7.531v36.418h25.84v7.883h-26.74v51.834
		c0,10.23,1.977,15.238,10.587,15.238c9.876,0,14.354-7.887,14.884-24.375h6.647v2.328c0,21.713-9.857,33.174-27.972,33.174
		c-16.155,0-20.456-7.883-20.456-24.742v-53.457H738.086z"/>
	<path fill="#9A0000" d="M815.016,782.639c-1.254-2.678-2.698-4.828-4.131-5.729c-2.148-1.428-5.377-1.975-9.677-1.975v-7.531
		h41.798v7.531h-4.497c-5.207,0-7.184,0.547-7.184,3.775c0,1.057,0.727,2.855,1.805,5.555l19.009,43.756l17.936-43.035
		c0.351-1.072,0.901-2.17,0.901-3.949c0-5.025-3.581-5.926-12.558-6.102v-7.531h34.618v7.531c-6.647,0-10.577,3.053-13.451,9.68
		l-30.302,70.496c-9.348,21.691-19.206,32.648-34.817,32.648c-10.581,0-16.488-5.379-16.488-13.834
		c0-5.904,4.478-10.58,10.759-10.58c5.729,0,9.332,3.422,9.332,8.801c0,3.053-1.433,4.482-1.433,5.205
		c0,1.254,1.061,1.977,3.23,1.977c5.729,0,14.69-9.508,22.418-28.166l1.248-2.859L815.016,782.639z"/>
	<path fill="#FFFFFF" d="M651.354,149.718c-84.377-51.501-217.328-48.411-302.689,0V284.78
		c-1.016,72.724,45.812,140.46,109.184,171.756c13.946,6.865,26.858,11.638,42.171,15.237c15.318-3.599,28.227-8.372,42.173-15.237
		c63.333-31.277,110.183-99.032,109.147-171.756L651.354,149.718z"/>
	<rect x="347.413" y="112.339" fill-rule="evenodd" clip-rule="evenodd" fill="none" width="305.45" height="359.903"/>
	<path fill="#9A0000" d="M602.359,410.179l-63.71-296.197c-2.658-0.274-5.357-0.43-8.038-0.646l53.535,314.898
		C590.586,422.621,596.666,416.576,602.359,410.179z"/>
	<path fill="#9A0000" d="M651.043,295.44l-73.545-175.022c-2.819-0.646-5.672-1.193-8.51-1.761l77.948,206.652
		C649.183,315.547,650.535,305.553,651.043,295.44z"/>
	<path fill="#9A0000" d="M542.191,456.4c4.792-2.387,9.488-5.028,14.084-7.807l-36.499-336.079
		c-2.895-0.137-5.771-0.118-8.665-0.196l22.142,348.207C536.206,459.217,539.16,457.887,542.191,456.4z"/>
	<path fill="#9A0000" d="M635.236,359.695l-77.494-243.151c-2.718-0.43-5.438-0.783-8.155-1.154l73.447,267.132
		C627.61,375.187,631.699,367.578,635.236,359.695z"/>
	<path fill="#9A0000" d="M651.354,149.582c-18.618-11.366-39.665-19.913-61.944-26.054l61.93,129.741L651.354,149.582z"/>
	<path fill="#9A0000" d="M348.664,149.698v135.063c-1.035,72.743,45.812,140.479,109.165,171.775
		c13.946,6.865,26.875,11.619,42.17,15.218V112.241C445.683,112.671,391.247,125.542,348.664,149.698z"/>
	<polygon fill="#FFFFFF" points="442.22,273.142 450.67,299.097 428.587,283.039 406.523,299.097 414.973,273.142 393.008,257.141 
		420.157,257.141 428.587,231.322 437.036,257.141 464.167,257.141 	"/>
</g>
</svg>
